<?xml version="1.0" encoding="UTF-8" standalone="no"?> <!-- Created with Inkscape (http://www.inkscape.org/) --> <svg xmlns:dc="http://purl.org/dc/elements/1.1/" xmlns:cc="http://creativecommons.org/ns#" xmlns:rdf="http://www.w3.org/1999/02/22-rdf-syntax-ns#" xmlns:svg="http://www.w3.org/2000/svg" xmlns="http://www.w3.org/2000/svg" xmlns:xlink="http://www.w3.org/1999/xlink" xmlns:sodipodi="http://sodipodi.sourceforge.net/DTD/sodipodi-0.dtd" xmlns:inkscape="http://www.inkscape.org/namespaces/inkscape" sodipodi:docname="1_REY_Blanco_Pieza Mural_.svg" inkscape:version="0.92.1 r15371" id="svg2" height="500" width="500"><defs id="defs4"><linearGradient inkscape:collect="always" id="linearGradient15130"><stop style="stop-color:#50e1e5;stop-opacity:1" offset="0" id="stop15126"></stop><stop id="stop16050" offset="0.16467732" style="stop-color:#5c839a;stop-opacity:1"></stop><stop style="stop-color:#292836;stop-opacity:1" offset="0.82338661" id="stop16052"></stop><stop style="stop-color:#321916;stop-opacity:1" offset="1" id="stop15128"></stop></linearGradient><linearGradient inkscape:collect="always" id="linearGradient10869"><stop style="stop-color:#ff0000;stop-opacity:1" offset="0" id="stop10871"></stop><stop style="stop-color:#ffff00;stop-opacity:0;" offset="1" id="stop10873"></stop></linearGradient><linearGradient inkscape:collect="always" id="linearGradient32215"><stop style="stop-color:#ffffff;stop-opacity:1;" offset="0" id="stop32217"></stop><stop style="stop-color:#ffffff;stop-opacity:0;" offset="1" id="stop32219"></stop></linearGradient><linearGradient inkscape:collect="always" id="linearGradient31478"><stop style="stop-color:#000000;stop-opacity:1;" offset="0" id="stop31480"></stop><stop style="stop-color:#000000;stop-opacity:0;" offset="1" id="stop31482"></stop></linearGradient><linearGradient id="linearGradient31017" inkscape:collect="always"><stop id="stop31019" offset="0" style="stop-color:#00ccff;stop-opacity:1"></stop><stop id="stop31021" offset="1" style="stop-color:#0044aa;stop-opacity:1"></stop></linearGradient><linearGradient inkscape:collect="always" id="linearGradient30777"><stop style="stop-color:#000080;stop-opacity:0" offset="0" id="stop30779"></stop><stop style="stop-color:#00ccff;stop-opacity:1" offset="1" id="stop30781"></stop></linearGradient><linearGradient inkscape:collect="always" id="linearGradient29410"><stop style="stop-color:#ffffff;stop-opacity:1;" offset="0" id="stop29412"></stop><stop style="stop-color:#ffffff;stop-opacity:0;" offset="1" id="stop29414"></stop></linearGradient><linearGradient inkscape:collect="always" id="linearGradient29398"><stop style="stop-color:#ff0000;stop-opacity:1" offset="0" id="stop29400"></stop><stop style="stop-color:#800000;stop-opacity:1" offset="1" id="stop29402"></stop></linearGradient><linearGradient id="linearGradient29225" inkscape:collect="always"><stop id="stop29227" offset="0" style="stop-color:#b3b3b3;stop-opacity:1"></stop><stop id="stop29229" offset="1" style="stop-color:#ffffff;stop-opacity:0;"></stop></linearGradient><linearGradient inkscape:collect="always" id="linearGradient29213"><stop style="stop-color:#ffffff;stop-opacity:1;" offset="0" id="stop29215"></stop><stop style="stop-color:#ffffff;stop-opacity:0;" offset="1" id="stop29217"></stop></linearGradient><linearGradient inkscape:collect="always" id="linearGradient15333"><stop style="stop-color:#ffffff;stop-opacity:1;" offset="0" id="stop15335"></stop><stop style="stop-color:#ffffff;stop-opacity:0;" offset="1" id="stop15337"></stop></linearGradient><linearGradient inkscape:collect="always" id="linearGradient8850"><stop style="stop-color:#666666;stop-opacity:1" offset="0" id="stop8852"></stop><stop style="stop-color:#e6e6e6;stop-opacity:1" offset="1" id="stop8854"></stop></linearGradient><linearGradient inkscape:collect="always" id="linearGradient10348"><stop style="stop-color:#ffffff;stop-opacity:1;" offset="0" id="stop10350"></stop><stop style="stop-color:#ffffff;stop-opacity:0;" offset="1" id="stop10352"></stop></linearGradient><linearGradient inkscape:collect="always" xlink:href="#linearGradient10590-8" id="linearGradient11278-8" gradientUnits="userSpaceOnUse" gradientTransform="matrix(0.9385744,0,0,0.9385744,583.7807,153.33106)" x1="349.99597" y1="872.45819" x2="349.99597" y2="669.03229"></linearGradient><linearGradient inkscape:collect="always" id="linearGradient10590-8"><stop style="stop-color:#ffffff;stop-opacity:1;" offset="0" id="stop10592-2"></stop><stop style="stop-color:#ffffff;stop-opacity:0;" offset="1" id="stop10594-7"></stop></linearGradient><linearGradient inkscape:collect="always" xlink:href="#linearGradient10590-2" id="linearGradient11278-1" gradientUnits="userSpaceOnUse" gradientTransform="matrix(0.9385744,0,0,0.9385744,583.7807,153.33106)" x1="349.99597" y1="872.45819" x2="349.99597" y2="669.03229"></linearGradient><linearGradient inkscape:collect="always" id="linearGradient10590-2"><stop style="stop-color:#ffffff;stop-opacity:1;" offset="0" id="stop10592-6"></stop><stop style="stop-color:#ffffff;stop-opacity:0;" offset="1" id="stop10594-0"></stop></linearGradient><linearGradient inkscape:collect="always" id="linearGradient10590-8-4"><stop style="stop-color:#ffffff;stop-opacity:1;" offset="0" id="stop10592-2-6"></stop><stop style="stop-color:#ffffff;stop-opacity:0;" offset="1" id="stop10594-7-0"></stop></linearGradient><linearGradient y2="742.88397" x2="351.02261" y1="1032.6744" x1="351.02261" gradientTransform="matrix(0,-1.9116905,1.9116905,0,-1030.7428,769.31114)" gradientUnits="userSpaceOnUse" id="linearGradient11398" xlink:href="#linearGradient10590-8-4" inkscape:collect="always"></linearGradient><linearGradient inkscape:collect="always" xlink:href="#linearGradient10590-8-2" id="linearGradient11324-6" gradientUnits="userSpaceOnUse" gradientTransform="matrix(0,-1.9116905,1.9116905,0,-546.60131,926.47038)" x1="351.02261" y1="1032.6744" x2="351.02261" y2="742.88397"></linearGradient><linearGradient inkscape:collect="always" id="linearGradient10590-8-2"><stop style="stop-color:#ffffff;stop-opacity:1;" offset="0" id="stop10592-2-4"></stop><stop style="stop-color:#ffffff;stop-opacity:0;" offset="1" id="stop10594-7-5"></stop></linearGradient><linearGradient inkscape:collect="always" xlink:href="#linearGradient10348" id="linearGradient11124" x1="288.22827" y1="617.33875" x2="305.90875" y2="680.73798" gradientUnits="userSpaceOnUse"></linearGradient><linearGradient inkscape:collect="always" xlink:href="#linearGradient8850" id="linearGradient8856" x1="124.75774" y1="995.88892" x2="124.75774" y2="520.83539" gradientUnits="userSpaceOnUse"></linearGradient><clipPath id="clipPath18983"><rect ry="6.0204554" rx="5.3669968" y="377.28311" x="462.55518" height="127.75334" width="204.11165" id="rect18985" style="fill:#0000ff;fill-rule:evenodd;stroke:#000000;stroke-width:1px;stroke-linecap:butt;stroke-linejoin:miter;stroke-opacity:1"></rect></clipPath><linearGradient inkscape:collect="always" xlink:href="#linearGradient29213-8" id="linearGradient29247-2" gradientUnits="userSpaceOnUse" gradientTransform="matrix(0.98786693,0,0,0.67003737,-6.2714654,-169.09397)" x1="561.87811" y1="-366.99567" x2="561.87811" y2="-388.64764"></linearGradient><linearGradient inkscape:collect="always" id="linearGradient29213-8"><stop style="stop-color:#ffffff;stop-opacity:1;" offset="0" id="stop29215-2"></stop><stop style="stop-color:#ffffff;stop-opacity:0;" offset="1" id="stop29217-9"></stop></linearGradient><clipPath id="clipPath29875"><path style="display:inline;fill:none;stroke:#ffff00;stroke-width:4;stroke-linecap:butt;stroke-linejoin:miter;stroke-opacity:1" d="m 271.40481,-375.71164 0.71869,1.625 c 257.34964,3.62524 465.46874,463.95959 465.46874,1031.3438 0,0.3022 2e-4,0.6041 0,0.9063 l 0.625,1.4062 h 212.1876 v -1015.2813 c 0,-14.2043 -6.6595,-20 -19.5,-20 z" id="path29877" inkscape:connector-curvature="0"></path></clipPath><clipPath id="clipPath29920"><rect style="fill:#0000ff;fill-rule:evenodd;stroke:none" id="rect29922" width="990" height="1530" x="0" y="-477.63724" rx="12.217699" ry="10.540621"></rect></clipPath><linearGradient inkscape:collect="always" xlink:href="#linearGradient29398" id="linearGradient31145" gradientUnits="userSpaceOnUse" x1="464.84128" y1="-33.468044" x2="464.84128" y2="-101.43774"></linearGradient><linearGradient inkscape:collect="always" xlink:href="#linearGradient29410" id="linearGradient31147" gradientUnits="userSpaceOnUse" x1="462.60342" y1="-135.94365" x2="462.60342" y2="-64.717422"></linearGradient><linearGradient inkscape:collect="always" xlink:href="#linearGradient29398" id="linearGradient31149" gradientUnits="userSpaceOnUse" x1="464.84128" y1="-33.468044" x2="464.84128" y2="-101.43774"></linearGradient><linearGradient inkscape:collect="always" xlink:href="#linearGradient29410" id="linearGradient31151" gradientUnits="userSpaceOnUse" x1="462.60342" y1="-135.94365" x2="462.60342" y2="-64.717422"></linearGradient><linearGradient inkscape:collect="always" xlink:href="#linearGradient29398" id="linearGradient31153" gradientUnits="userSpaceOnUse" x1="464.84128" y1="-33.468044" x2="464.84128" y2="-101.43774"></linearGradient><linearGradient inkscape:collect="always" xlink:href="#linearGradient29410" id="linearGradient31155" gradientUnits="userSpaceOnUse" x1="462.60342" y1="-135.94365" x2="462.60342" y2="-64.717422"></linearGradient><linearGradient inkscape:collect="always" xlink:href="#linearGradient29398" id="linearGradient31215" gradientUnits="userSpaceOnUse" x1="464.84128" y1="-33.468044" x2="464.84128" y2="-101.43774"></linearGradient><linearGradient inkscape:collect="always" xlink:href="#linearGradient29410" id="linearGradient31217" gradientUnits="userSpaceOnUse" x1="462.60342" y1="-135.94365" x2="462.60342" y2="-64.717422"></linearGradient><linearGradient inkscape:collect="always" xlink:href="#linearGradient29398" id="linearGradient31219" gradientUnits="userSpaceOnUse" x1="464.84128" y1="-33.468044" x2="464.84128" y2="-101.43774"></linearGradient><linearGradient inkscape:collect="always" xlink:href="#linearGradient29410" id="linearGradient31221" gradientUnits="userSpaceOnUse" x1="462.60342" y1="-135.94365" x2="462.60342" y2="-64.717422"></linearGradient><linearGradient inkscape:collect="always" xlink:href="#linearGradient29398" id="linearGradient31223" gradientUnits="userSpaceOnUse" x1="464.84128" y1="-33.468044" x2="464.84128" y2="-101.43774"></linearGradient><linearGradient inkscape:collect="always" xlink:href="#linearGradient29410" id="linearGradient31225" gradientUnits="userSpaceOnUse" x1="462.60342" y1="-135.94365" x2="462.60342" y2="-64.717422"></linearGradient><linearGradient inkscape:collect="always" xlink:href="#linearGradient31478" id="linearGradient32249" gradientUnits="userSpaceOnUse" gradientTransform="matrix(1,0,0,3.1737609,0,-2287.5852)" x1="466.02231" y1="1042.1653" x2="466.02231" y2="1000.3559"></linearGradient><linearGradient inkscape:collect="always" xlink:href="#linearGradient29225" id="linearGradient32251" gradientUnits="userSpaceOnUse" x1="622.04291" y1="-466.3038" x2="622.04291" y2="-438.01205"></linearGradient><linearGradient inkscape:collect="always" xlink:href="#linearGradient29213" id="linearGradient32253" gradientUnits="userSpaceOnUse" gradientTransform="matrix(0.98786693,0,0,0.67003737,-6.2714654,-169.09397)" x1="561.87811" y1="-366.99567" x2="561.87811" y2="-388.64764"></linearGradient><linearGradient inkscape:collect="always" xlink:href="#linearGradient31017" id="linearGradient32255" gradientUnits="userSpaceOnUse" x1="464.84128" y1="-33.468044" x2="464.84128" y2="-101.43774"></linearGradient><linearGradient inkscape:collect="always" xlink:href="#linearGradient29410" id="linearGradient32257" gradientUnits="userSpaceOnUse" x1="462.60342" y1="-135.94365" x2="462.60342" y2="-64.717422"></linearGradient><linearGradient inkscape:collect="always" xlink:href="#linearGradient31017" id="linearGradient32259" gradientUnits="userSpaceOnUse" x1="464.84128" y1="-33.468044" x2="464.84128" y2="-101.43774"></linearGradient><linearGradient inkscape:collect="always" xlink:href="#linearGradient29410" id="linearGradient32261" gradientUnits="userSpaceOnUse" x1="462.60342" y1="-135.94365" x2="462.60342" y2="-64.717422"></linearGradient><linearGradient inkscape:collect="always" xlink:href="#linearGradient31017" id="linearGradient32263" gradientUnits="userSpaceOnUse" x1="464.84128" y1="-33.468044" x2="464.84128" y2="-101.43774"></linearGradient><linearGradient inkscape:collect="always" xlink:href="#linearGradient29410" id="linearGradient32265" gradientUnits="userSpaceOnUse" x1="462.60342" y1="-135.94365" x2="462.60342" y2="-64.717422"></linearGradient><linearGradient inkscape:collect="always" xlink:href="#linearGradient31017" id="linearGradient32267" gradientUnits="userSpaceOnUse" x1="464.84128" y1="-33.468044" x2="464.84128" y2="-101.43774"></linearGradient><linearGradient inkscape:collect="always" xlink:href="#linearGradient29410" id="linearGradient32269" gradientUnits="userSpaceOnUse" x1="462.60342" y1="-135.94365" x2="462.60342" y2="-64.717422"></linearGradient><linearGradient inkscape:collect="always" xlink:href="#linearGradient10869" id="linearGradient10875" x1="-212.10643" y1="-163.1703" x2="-348.75192" y2="-167.24927" gradientUnits="userSpaceOnUse" gradientTransform="matrix(1.1878442,0,0,1.1878442,73.223485,22.627938)"></linearGradient><linearGradient inkscape:collect="always" xlink:href="#linearGradient30777" id="linearGradient10877" gradientUnits="userSpaceOnUse" gradientTransform="translate(-225.8503,-860.57163)" x1="635.2146" y1="286.86148" x2="635.2146" y2="139.52235"></linearGradient><linearGradient inkscape:collect="always" xlink:href="#linearGradient10869" id="linearGradient11103" gradientUnits="userSpaceOnUse" gradientTransform="matrix(0.23188801,0,0,0.23188801,-439.12389,-434.2708)" x1="-212.10643" y1="-163.1703" x2="-348.75192" y2="-167.24927"></linearGradient><linearGradient inkscape:collect="always" xlink:href="#linearGradient32215" id="linearGradient13485" gradientUnits="userSpaceOnUse" gradientTransform="matrix(1.0017846,0,0,1.198343,-21.367394,-526.80156)" x1="-109.2384" y1="-491.70157" x2="374.52698" y2="599.54681"></linearGradient><linearGradient inkscape:collect="always" xlink:href="#linearGradient32215" id="linearGradient14018" gradientUnits="userSpaceOnUse" gradientTransform="matrix(-1.0018379,0,0,-1.0867035,1011.3948,1096.9879)" x1="-109.2384" y1="-491.70157" x2="374.52698" y2="599.54681"></linearGradient><linearGradient inkscape:collect="always" xlink:href="#linearGradient31478" id="linearGradient14066" gradientUnits="userSpaceOnUse" gradientTransform="matrix(1,0,0,3.1737609,0,-2287.5852)" x1="466.02231" y1="1042.1653" x2="466.02231" y2="1000.3559"></linearGradient><clipPath id="clipPath14070"><rect ry="0" rx="0" y="-477.63724" x="3.7107193e-013" height="1530" width="990" id="rect14072" style="opacity:0.5;fill:#0000ff;fill-rule:evenodd;stroke:none"></rect></clipPath><linearGradient inkscape:collect="always" xlink:href="#linearGradient30777" id="linearGradient10629" gradientUnits="userSpaceOnUse" gradientTransform="translate(-225.8503,-860.57163)" x1="635.2146" y1="286.86148" x2="635.2146" y2="139.52235"></linearGradient><linearGradient inkscape:collect="always" xlink:href="#linearGradient15333" id="linearGradient10631" gradientUnits="userSpaceOnUse" gradientTransform="translate(-865.42632,279.0994)" x1="288.71066" y1="-793.13306" x2="154.21602" y2="-793.13306"></linearGradient><linearGradient inkscape:collect="always" xlink:href="#linearGradient30777" id="linearGradient10645" gradientUnits="userSpaceOnUse" gradientTransform="translate(-225.8503,-860.57163)" x1="635.2146" y1="286.86148" x2="635.2146" y2="139.52235"></linearGradient><linearGradient inkscape:collect="always" xlink:href="#linearGradient15333" id="linearGradient10647" gradientUnits="userSpaceOnUse" gradientTransform="translate(-865.42632,279.0994)" x1="288.71066" y1="-793.13306" x2="154.21602" y2="-793.13306"></linearGradient><linearGradient inkscape:collect="always" xlink:href="#linearGradient30777" id="linearGradient10661" gradientUnits="userSpaceOnUse" gradientTransform="translate(-225.8503,-860.57163)" x1="635.2146" y1="286.86148" x2="635.2146" y2="139.52235"></linearGradient><linearGradient inkscape:collect="always" xlink:href="#linearGradient15333" id="linearGradient10663" gradientUnits="userSpaceOnUse" gradientTransform="translate(-865.42632,279.0994)" x1="288.71066" y1="-793.13306" x2="154.21602" y2="-793.13306"></linearGradient><linearGradient inkscape:collect="always" xlink:href="#linearGradient30777" id="linearGradient10677" gradientUnits="userSpaceOnUse" gradientTransform="translate(-225.8503,-860.57163)" x1="635.2146" y1="286.86148" x2="635.2146" y2="139.52235"></linearGradient><linearGradient inkscape:collect="always" xlink:href="#linearGradient15333" id="linearGradient10679" gradientUnits="userSpaceOnUse" gradientTransform="translate(-865.42632,279.0994)" x1="288.71066" y1="-793.13306" x2="154.21602" y2="-793.13306"></linearGradient><linearGradient inkscape:collect="always" xlink:href="#linearGradient30777" id="linearGradient10693" gradientUnits="userSpaceOnUse" gradientTransform="translate(-225.8503,-860.57163)" x1="635.2146" y1="286.86148" x2="635.2146" y2="139.52235"></linearGradient><linearGradient inkscape:collect="always" xlink:href="#linearGradient15333" id="linearGradient10695" gradientUnits="userSpaceOnUse" gradientTransform="translate(-865.42632,279.0994)" x1="288.71066" y1="-793.13306" x2="154.21602" y2="-793.13306"></linearGradient><linearGradient inkscape:collect="always" xlink:href="#linearGradient30777" id="linearGradient10709" gradientUnits="userSpaceOnUse" gradientTransform="translate(-225.8503,-860.57163)" x1="635.2146" y1="286.86148" x2="635.2146" y2="139.52235"></linearGradient><linearGradient inkscape:collect="always" xlink:href="#linearGradient15333" id="linearGradient10711" gradientUnits="userSpaceOnUse" gradientTransform="translate(-865.42632,279.0994)" x1="288.71066" y1="-793.13306" x2="154.21602" y2="-793.13306"></linearGradient><linearGradient inkscape:collect="always" xlink:href="#linearGradient30777" id="linearGradient10725" gradientUnits="userSpaceOnUse" gradientTransform="translate(-225.8503,-860.57163)" x1="635.2146" y1="286.86148" x2="635.2146" y2="139.52235"></linearGradient><linearGradient inkscape:collect="always" xlink:href="#linearGradient15333" id="linearGradient10727" gradientUnits="userSpaceOnUse" gradientTransform="translate(-865.42632,279.0994)" x1="288.71066" y1="-793.13306" x2="154.21602" y2="-793.13306"></linearGradient><linearGradient inkscape:collect="always" xlink:href="#linearGradient30777" id="linearGradient10741" gradientUnits="userSpaceOnUse" gradientTransform="translate(-225.8503,-860.57163)" x1="635.2146" y1="286.86148" x2="635.2146" y2="139.52235"></linearGradient><linearGradient inkscape:collect="always" xlink:href="#linearGradient15333" id="linearGradient10743" gradientUnits="userSpaceOnUse" gradientTransform="translate(-865.42632,279.0994)" x1="288.71066" y1="-793.13306" x2="154.21602" y2="-793.13306"></linearGradient><linearGradient inkscape:collect="always" xlink:href="#linearGradient30777" id="linearGradient10757" gradientUnits="userSpaceOnUse" gradientTransform="translate(-225.8503,-860.57163)" x1="635.2146" y1="286.86148" x2="635.2146" y2="139.52235"></linearGradient><linearGradient inkscape:collect="always" xlink:href="#linearGradient15333" id="linearGradient10759" gradientUnits="userSpaceOnUse" gradientTransform="translate(-865.42632,279.0994)" x1="288.71066" y1="-793.13306" x2="154.21602" y2="-793.13306"></linearGradient><linearGradient inkscape:collect="always" xlink:href="#linearGradient30777" id="linearGradient10773" gradientUnits="userSpaceOnUse" gradientTransform="translate(-225.8503,-860.57163)" x1="635.2146" y1="286.86148" x2="635.2146" y2="139.52235"></linearGradient><linearGradient inkscape:collect="always" xlink:href="#linearGradient15333" id="linearGradient10775" gradientUnits="userSpaceOnUse" gradientTransform="translate(-865.42632,279.0994)" x1="288.71066" y1="-793.13306" x2="154.21602" y2="-793.13306"></linearGradient><linearGradient inkscape:collect="always" xlink:href="#linearGradient30777" id="linearGradient10789" gradientUnits="userSpaceOnUse" gradientTransform="translate(-225.8503,-860.57163)" x1="635.2146" y1="286.86148" x2="635.2146" y2="139.52235"></linearGradient><linearGradient inkscape:collect="always" xlink:href="#linearGradient15333" id="linearGradient10791" gradientUnits="userSpaceOnUse" gradientTransform="translate(-865.42632,279.0994)" x1="288.71066" y1="-793.13306" x2="154.21602" y2="-793.13306"></linearGradient><linearGradient inkscape:collect="always" xlink:href="#linearGradient30777" id="linearGradient10805" gradientUnits="userSpaceOnUse" gradientTransform="translate(-225.8503,-860.57163)" x1="635.2146" y1="286.86148" x2="635.2146" y2="139.52235"></linearGradient><linearGradient inkscape:collect="always" xlink:href="#linearGradient15333" id="linearGradient10807" gradientUnits="userSpaceOnUse" gradientTransform="translate(-865.42632,279.0994)" x1="288.71066" y1="-793.13306" x2="154.21602" y2="-793.13306"></linearGradient><pattern id="pattern16122" patternTransform="translate(-811.17872,496.86455)" height="290.68932" width="290.72009" patternUnits="userSpaceOnUse"><path sodipodi:type="star" style="fill:#ffff00;fill-rule:evenodd;stroke:none" id="path15374" sodipodi:sides="65" sodipodi:cx="254.54152" sodipodi:cy="1323.8293" sodipodi:r1="145.40681" sodipodi:r2="74.281784" sodipodi:arg1="-2.6901395" sodipodi:arg2="-2.3611841" inkscape:flatsided="false" inkscape:rounded="0" inkscape:randomized="0" d="m 123.70242,1260.3922 78.05252,11.1747 -71.31915,-23.5063 76.60963,18.6557 -68.71751,-30.28 74.45145,25.9626 -65.47428,-36.7708 71.59813,33.0269 -61.61973,-42.9183 68.07634,39.783 -57.18986,-48.6651 63.91892,46.1675 -52.22601,-53.9575 59.16471,52.1211 -46.77455,-58.7462 53.8581,57.588 -40.88636,-62.9863 48.04862,62.5172 -34.61643,-66.6384 41.79053,66.8627 -28.0233,-69.6682 35.14226,70.5839 -21.16852,-72.0476 28.16587,73.6461 -14.1161,-73.7544 20.92651,76.0208 -6.93188,-74.7725 13.49175,77.6856 0.31707,-75.0925 5.93103,78.6251 7.56305,-74.7113 -1.68506,78.8304 14.73841,-73.6325 -9.28542,78.2997 21.77617,-71.8663 -16.79909,77.038 28.61062,-69.4291 -24.15592,75.0571 35.17793,-66.3437 -31.2872,72.3753 41.4168,-62.6388 -38.12636,69.0177 47.26896,-58.349 -44.60954,65.0158 52.67979,-53.5146 -50.67623,60.4069 57.59877,-48.1804 -56.26976,55.2339 61.97996,-42.3964 -61.33791,49.5452 65.78245,-36.2165 -65.83336,43.394 68.97075,-29.6986 -69.71415,36.8376 71.5151,-22.9033 -72.94404,29.9372 73.39173,-15.8942 -75.49287,22.7574 74.58311,-8.7367 -77.33684,15.365 75.07815,-1.4975 -78.45875,7.8292 74.87219,5.7555 -78.8481,0.2203 73.96717,12.9548 -78.50126,-7.3907 72.37153,20.0333 -77.42148,-14.9327 70.10019,26.9246 -75.61884,-22.3352 67.17434,33.5646 -73.11017,-29.5292 63.6213,39.8911 -69.91889,-36.4475 59.47425,45.8452 -66.07479,-43.0255 54.7719,51.3713 -61.61377,-49.2018 49.55815,56.4178 -56.57747,-54.9187 43.8817,60.9374 -51.01293,-60.1228 37.79553,64.8881 -44.9721,-64.7656 31.35649,68.233 -38.51137,-68.8036 24.62467,70.9408 -31.69108,-72.1994 17.66294,72.9862 -24.57489,-74.9209 10.5363,74.3503 -17.22925,-76.943 3.31127,75.02 -9.72275,-78.2467 -3.94466,74.9894 -2.12547,-78.8197 -11.16377,74.2586 5.49166,-78.6569 -18.27864,72.8345 13.05751,-77.7597 -25.22285,70.7303 20.50144,-76.1365 -31.93156,67.9658 27.75397,-73.8024 -38.34214,64.5667 34.74735,-70.7792 -44.39472,60.5647 41.41632,-67.0952 -50.0328,55.9972 47.69858,-62.7846 -55.20374,50.9069 53.53551,-57.888 -59.85927,45.3414 58.87259,-52.4509 -63.95589,39.3525 63.65997,-46.524 -67.45537,32.9961 67.85299,-40.1626 -70.32505,26.3316 71.41249,-33.4264 -72.53812,19.4214 74.30523,-26.3781 -74.07393,12.3298 76.5042,-19.0834 -74.91812,5.123 77.98887,-11.6106 -75.06283,-2.1315 78.74538,-4.0294 -74.50668,-9.3662 78.76666,3.5894 z" transform="translate(-109.20854,-1178.5425)" inkscape:transform-center-y="-28.943195"></path></pattern><radialGradient inkscape:collect="always" xlink:href="#linearGradient15130" id="radialGradient15134-7-2" cx="540.38275" cy="27.302429" fx="540.38275" fy="27.302429" r="475.56677" gradientTransform="matrix(0.82501153,0,0,0.42681124,-187.98783,238.3469)" gradientUnits="userSpaceOnUse"></radialGradient><pattern y="0" x="0" height="6" width="6" patternUnits="userSpaceOnUse" id="EMFhbasepattern"></pattern><pattern y="0" x="0" height="6" width="6" patternUnits="userSpaceOnUse" id="EMFhbasepattern-7"></pattern></defs><metadata id="metadata7"></metadata><g inkscape:label="Capa 1" inkscape:groupmode="layer" id="layer1" transform="translate(0,-552.36275)" style="display:inline"><g id="g8323" transform="matrix(9.3563558,0,0,9.3563558,-2755.5807,-8305.2579)"><path inkscape:connector-curvature="0" style="fill:#000000;fill-opacity:1;fill-rule:evenodd;stroke:#000000;stroke-width:1.43998933px;stroke-linecap:butt;stroke-linejoin:miter;stroke-miterlimit:4;stroke-dasharray:none;stroke-opacity:1" d="m 347.23393,973.41538 c 0,14.3199 -11.67992,25.99981 -25.99981,25.99981 -14.39989,0 -25.99981,-11.67991 -25.99981,-25.99981 0,-14.39989 11.59992,-25.99981 25.99981,-25.99981 14.31989,0 25.99981,11.59992 25.99981,25.99981 z" id="path8292"></path><path inkscape:connector-curvature="0" style="fill:#ffffff;fill-opacity:1;fill-rule:nonzero;stroke:none" d="m 319.55413,950.69555 v 3.19998 h -3.19997 v 3.11997 h 3.19997 v 3.27998 l -1.19999,1.19999 c -1.03999,1.03999 -1.27999,1.35999 -1.59999,2.39998 -0.24,0.8 -0.39999,1.75999 -0.39999,2.55998 0,0.72 0,1.27999 -0.08,1.27999 -0.08,0 -0.72,-0.39999 -1.51999,-0.79999 -2.07999,-1.19999 -3.51998,-1.67999 -5.59996,-1.75999 -2.15999,-0.08 -3.35998,0.16 -5.11996,0.96 -3.35998,1.59998 -5.43996,5.27996 -4.87997,8.39993 0.48,2.39999 1.91999,4.47997 4.95997,7.43995 l 1.99998,1.91998 0.16,4.39997 c 0.08,3.67998 0.16,4.39997 0.48,4.79997 0.71999,1.03999 4.55996,2.39998 8.39993,3.03997 1.19999,0.16 3.67998,0.24 6.07996,0.24 2.31998,0 4.87996,-0.08 5.99995,-0.24 3.91998,-0.63999 7.75995,-1.99998 8.47994,-3.03997 0.32,-0.4 0.32,-1.11999 0.48,-4.79997 l 0.08,-4.39997 1.99998,-1.91998 c 3.11998,-2.95998 4.55997,-5.03996 4.95997,-7.43995 0.63999,-3.11997 -1.51999,-6.79995 -4.79997,-8.39993 -1.75999,-0.8 -3.03998,-1.04 -5.11996,-0.96 -2.07999,0.08 -3.51997,0.56 -5.59996,1.75999 -0.79999,0.4 -1.51999,0.79999 -1.51999,0.79999 -0.08,0 -0.16,-0.55999 -0.16,-1.27999 0,-0.79999 -0.08,-1.75998 -0.31999,-2.55998 -0.4,-1.03999 -0.56,-1.35999 -1.59999,-2.39998 l -1.19999,-1.19999 v -3.27998 h 3.11997 v -3.11997 h -3.11997 v -3.19998 z m 4.15997,13.0399 c 0.48,0.96 0.56,1.27999 0.56,2.71998 0,1.19999 -0.08,1.83999 -0.48,2.79998 -0.71999,1.91999 -2.39998,5.35996 -2.55998,5.35996 -0.16,0 -1.83999,-3.43997 -2.63998,-5.35996 -0.32,-0.95999 -0.4,-1.59999 -0.48,-2.79998 0,-1.43999 0.08,-1.75998 0.56,-2.71998 1.35999,-2.63998 3.99997,-2.15998 5.03996,0 z m -3.19998,-0.08 c -1.19999,1.19999 -1.03999,4.47997 0.4,6.63996 0.08,0.15999 0.24,0.31999 0.32,0.39999 0.08,-0.08 0.16,-0.24 0.32,-0.39999 1.35999,-2.15999 1.59999,-5.43997 0.31999,-6.63996 -0.55999,-0.47999 -0.87999,-0.39999 -1.35999,0 z m -12.2399,3.03998 c 1.19999,-0.08 2.63998,0.16 3.59997,0.48 3.59997,1.27999 6.95995,5.19996 8.07994,9.51993 0.4,1.43999 0.63999,5.19996 0.32,5.35996 -0.08,0.08 -1.43999,0.24 -2.87998,0.32 -2.71998,0.16 -4.23997,0.31999 -6.23996,0.79999 -2.23998,0.48 -2.23998,0.48 -3.11997,-0.08 -1.75999,-1.11999 -5.43996,-4.63996 -6.31996,-6.07995 -1.11999,-1.75999 -1.35999,-4.15997 -0.55999,-5.99996 0.87999,-1.91999 3.19998,-3.75997 5.59996,-4.23997 0.39999,-0.08 0.95999,-0.08 1.51999,-0.08 z m 25.43981,0 c 0.16,-0.08 0.31999,0 0.47999,0 0.56,0 1.12,0 1.51999,0.08 2.31999,0.48 4.71997,2.31998 5.51996,4.23997 0.8,1.83999 0.64,4.23997 -0.48,5.99996 -0.95999,1.43999 -4.55996,4.95996 -6.31995,6.07995 -0.87999,0.56 -0.87999,0.56 -3.11998,0.08 -1.99998,-0.48 -3.51997,-0.63999 -6.23995,-0.79999 -1.51999,-0.08 -2.79998,-0.24 -2.87998,-0.32 -0.32,-0.16 -0.08,-3.91997 0.24,-5.35996 1.11999,-4.31997 4.55997,-8.23994 8.15994,-9.51993 0.87999,-0.32 1.99999,-0.48 3.11998,-0.48 z m -24.87982,1.75999 c -0.16,0 -0.32,0 -0.48,0.08 -2.47998,0 -4.79996,1.27999 -5.67995,3.51997 -0.48,1.43999 -0.48,2.07999 0.24,3.43998 0.47999,0.95999 1.11999,1.75998 3.11997,3.75997 1.43999,1.35999 2.71998,2.55998 2.79998,2.55998 0.16,0 1.19999,-0.24 2.47998,-0.48 1.83999,-0.39999 6.31996,-1.03999 7.19995,-1.03999 0.71999,0 -0.16,-3.27997 -1.51999,-6.07995 -0.79999,-1.67999 -1.27999,-2.39999 -2.07998,-3.11998 -1.75999,-1.67999 -3.99997,-2.55998 -6.07996,-2.63998 z m 24.79982,0 c -2.07999,0.08 -4.39997,0.95999 -6.07996,2.63998 -0.79999,0.71999 -1.27999,1.43999 -2.07998,3.11998 -1.43999,2.79998 -2.23999,6.07995 -1.59999,6.07995 0.87999,0 5.43996,0.64 7.27995,1.03999 1.19999,0.24 2.31998,0.48 2.39998,0.48 0.16,0 1.43999,-1.19999 2.79998,-2.55998 2.07998,-1.99999 2.71998,-2.79998 3.19997,-3.75997 0.64,-1.35999 0.72,-1.99999 0.16,-3.43998 -0.79999,-2.23998 -3.11997,-3.51997 -5.67996,-3.51997 -0.08,-0.08 -0.23999,-0.08 -0.39999,-0.08 z m -13.6799,17.51987 c 0.4,0 0.87999,0 1.27999,0 3.35997,-0.08 6.71995,0.08 7.99994,0.32 2.23998,0.39999 3.43997,0.79999 3.99997,1.27999 0.48,0.39999 0.48,0.71999 0.16,1.03999 -0.24,0.32 -0.48,0.24 -2.95998,-0.24 -2.71998,-0.56 -5.99995,-0.87999 -9.19993,-0.87999 -3.27998,0 -6.47995,0.31999 -9.19993,0.87999 -2.55998,0.48 -2.71998,0.56 -3.03998,0.24 -0.32,-0.32 -0.24,-0.64 0.24,-1.03999 0.47999,-0.48 1.75999,-0.88 3.91997,-1.27999 1.19999,-0.24 3.91997,-0.32 6.79995,-0.32 z m 1.27999,3.43997 c 0.4,0 0.79999,0 1.19999,0.08 7.59994,0.32 12.39991,1.75999 10.95992,3.19998 -0.24,0.24 0.08,0.32 -2.71998,-0.48 -3.27998,-0.79999 -5.43996,-1.03999 -9.43993,-1.03999 -3.99997,0 -6.23995,0.24 -9.43993,1.03999 -2.87998,0.8 -2.47998,0.72 -2.79998,0.48 -1.43999,-1.43999 3.43997,-2.87998 10.95992,-3.19998 0.4,-0.08 0.87999,-0.08 1.27999,-0.08 z" id="path8294"></path><path inkscape:connector-curvature="0" style="fill:none;stroke:#ffffff;stroke-width:0.15999882px;stroke-linecap:butt;stroke-linejoin:miter;stroke-miterlimit:4;stroke-dasharray:none;stroke-opacity:1" d="m 294.59432,973.41538 h 0.63999" id="path8296"></path><path inkscape:connector-curvature="0" style="fill:none;stroke:#ffffff;stroke-width:0.15999882px;stroke-linecap:butt;stroke-linejoin:miter;stroke-miterlimit:4;stroke-dasharray:none;stroke-opacity:1" d="m 347.23393,973.41538 h 0.55999" id="path8298"></path><path inkscape:connector-curvature="0" style="fill:none;stroke:#ffffff;stroke-width:0.15999882px;stroke-linecap:butt;stroke-linejoin:miter;stroke-miterlimit:4;stroke-dasharray:none;stroke-opacity:1" d="m 321.23412,999.97518 v -0.55999" id="path8300"></path><path inkscape:connector-curvature="0" style="fill:none;stroke:#ffffff;stroke-width:0.15999882px;stroke-linecap:butt;stroke-linejoin:miter;stroke-miterlimit:4;stroke-dasharray:none;stroke-opacity:1" d="m 321.23412,947.41557 v -0.63999" id="path8302"></path></g></g></svg> 